<svg width="85" height="42" viewBox="0 0 85 42" fill="none" xmlns="http://www.w3.org/2000/svg">
<path d="M1.5159 37.2301C0.464922 37.2301 0 36.6778 0 35.5501V6.6976C0 5.56989 0.521652 5.0022 1.57263 5.0022H4.98638C6.03736 5.0022 6.55901 5.0023 6.55901 5.97648V17.1342C6.42517 17.2703 6.19319 17.3941 5.5069 17.6832H19.6574C19.0134 17.4162 18.7607 17.2945 18.6491 17.1652V6.6976C18.6567 5.57756 19.1784 5.0022 20.2294 5.0022H23.6431C24.6941 5.0022 25.2157 5.0022 25.2157 5.97648V36.2788C25.2157 37.2378 24.5481 37.2226 23.6431 37.2378H20.2294C19.1784 37.2378 18.6567 36.6778 18.6567 35.5501V23.7711C18.7945 23.6202 19.068 23.4976 19.7084 23.2527H5.493C6.08874 23.5106 6.43272 23.6573 6.56668 23.7991V36.2712C6.56668 37.2303 6.04503 37.2301 4.99405 37.2301H1.5159Z" fill="#FFFB29"/>
<path d="M32.9712 37.2413C31.9202 37.2413 31.3986 36.6812 31.3986 35.5609V6.6871C31.3986 5.56683 31.9202 4.99902 32.9712 4.99902H43.3733C48.0067 4.99902 51.382 5.71262 53.507 7.14749C55.6319 8.58235 56.6982 10.9073 56.6982 14.13C56.6982 16.524 55.8237 18.4423 54.0746 19.8618C52.3256 21.289 50.1316 22.2328 47.4774 22.6931L46.6566 22.7392C48.0988 23.2763 50.0012 24.0283 50.73 24.9874C51.4664 25.9465 52.0648 26.7829 52.525 27.5042L57.1815 35.3077C57.9563 36.5968 58.5162 37.2413 57.2045 37.2413H52.7015C51.9267 37.2413 51.2746 36.7963 50.753 35.9139L46.2116 28.3405C45.7207 27.5349 45.5212 27.274 44.4473 25.8545C43.3733 24.4349 43.2889 24.2278 42.0002 24.2278H37.9421V36.2822C37.9421 37.2413 37.4205 37.2413 36.3695 37.2413H32.9558H32.9712ZM37.9574 18.6494H41.9771C44.9766 18.6494 47.1015 18.3118 48.3673 17.6289C49.633 16.946 50.2697 15.8641 50.2697 14.3832C50.2697 12.7642 49.656 11.713 48.4363 11.2219C47.2166 10.7385 45.4215 10.4929 43.0511 10.4929H37.9498V18.6494H37.9574Z" fill="#FFFB29"/>
<path d="M64.0476 37.2392C62.9966 37.2392 62.475 36.679 62.475 35.5511V6.67714C62.475 5.55686 62.9966 5.0044 64.0476 5.0044H67.6914C68.5889 5.0044 69.0415 5.00419 69.0415 5.96354V31.1403C68.9838 31.2911 68.7479 31.4104 68.1328 31.6608H82.8574C83.9774 31.6608 83.8316 32.1442 83.8316 33.1187V35.7736C83.8316 36.7481 83.985 37.2315 82.8574 37.2315H64.0476V37.2392Z" fill="#FFFB29"/>
</svg>
